<svg xmlns="http://www.w3.org/2000/svg" version="1.1" xmlns:xlink="http://www.w3.org/1999/xlink" xmlns:svgjs="http://svgjs.dev/svgjs" width="1440" height="560" preserveAspectRatio="none" viewBox="0 0 1440 560"><g mask="url(&quot;#SvgjsMask1001&quot;)" fill="none"><rect width="1440" height="560" x="0" y="0" fill="#0e2a47"></rect><path d="M 0,298 C 57.6,263 172.8,124.8 288,123 C 403.2,121.2 460.8,300.4 576,289 C 691.2,277.6 748.8,47.2 864,66 C 979.2,84.8 1036.8,366.6 1152,383 C 1267.2,399.4 1382.4,195 1440,148L1440 560L0 560z" fill="#184a7e"></path><path d="M 0,90 C 96,151.6 288,386.8 480,398 C 672,409.2 768,116.2 960,146 C 1152,175.8 1344,466.8 1440,547L1440 560L0 560z" fill="rgba(34, 100, 171, 1)"></path></g><defs><mask id="SvgjsMask1001"><rect width="1440" height="560" fill="#ffffff"></rect></mask></defs></svg>